<mxfile host="app.diagrams.net" modified="2024-06-19T09:55:02.725Z" agent="Mozilla/5.0 (Windows NT 10.0; Win64; x64) AppleWebKit/537.36 (KHTML, like Gecko) Chrome/126.0.0.0 Safari/537.36" etag="LJKdnLdwnN0znJp1O1Ze" version="24.5.5" type="github">
  <diagram id="C5RBs43oDa-KdzZeNtuy" name="Page-1">
    <mxGraphModel dx="1687" dy="878" grid="1" gridSize="10" guides="1" tooltips="1" connect="1" arrows="1" fold="1" page="1" pageScale="1" pageWidth="827" pageHeight="1169" math="0" shadow="0">
      <root>
        <mxCell id="WIyWlLk6GJQsqaUBKTNV-0" />
        <mxCell id="WIyWlLk6GJQsqaUBKTNV-1" parent="WIyWlLk6GJQsqaUBKTNV-0" />
        <mxCell id="zP8EwtP2JhC-W3fuDBsI-44" value="Has" style="rhombus;whiteSpace=wrap;html=1;fillColor=#f5f5f5;fontColor=#333333;strokeColor=#666666;" vertex="1" parent="WIyWlLk6GJQsqaUBKTNV-1">
          <mxGeometry x="420" y="585" width="80" height="80" as="geometry" />
        </mxCell>
        <mxCell id="zP8EwtP2JhC-W3fuDBsI-46" value="1" style="edgeStyle=orthogonalEdgeStyle;rounded=0;orthogonalLoop=1;jettySize=auto;html=1;" edge="1" parent="WIyWlLk6GJQsqaUBKTNV-1" source="zP8EwtP2JhC-W3fuDBsI-13" target="zP8EwtP2JhC-W3fuDBsI-44">
          <mxGeometry relative="1" as="geometry" />
        </mxCell>
        <mxCell id="zP8EwtP2JhC-W3fuDBsI-10" value="Has" style="rhombus;whiteSpace=wrap;html=1;fillColor=#f5f5f5;fontColor=#333333;strokeColor=#666666;" vertex="1" parent="WIyWlLk6GJQsqaUBKTNV-1">
          <mxGeometry x="220" y="230" width="80" height="80" as="geometry" />
        </mxCell>
        <mxCell id="zP8EwtP2JhC-W3fuDBsI-23" value="" style="group" vertex="1" connectable="0" parent="WIyWlLk6GJQsqaUBKTNV-1">
          <mxGeometry x="110" y="30" width="470" height="120" as="geometry" />
        </mxCell>
        <mxCell id="zP8EwtP2JhC-W3fuDBsI-2" style="edgeStyle=orthogonalEdgeStyle;rounded=0;orthogonalLoop=1;jettySize=auto;html=1;" edge="1" parent="zP8EwtP2JhC-W3fuDBsI-23" source="zP8EwtP2JhC-W3fuDBsI-0" target="zP8EwtP2JhC-W3fuDBsI-1">
          <mxGeometry relative="1" as="geometry" />
        </mxCell>
        <mxCell id="zP8EwtP2JhC-W3fuDBsI-6" style="edgeStyle=orthogonalEdgeStyle;rounded=0;orthogonalLoop=1;jettySize=auto;html=1;entryX=0.5;entryY=1;entryDx=0;entryDy=0;" edge="1" parent="zP8EwtP2JhC-W3fuDBsI-23" source="zP8EwtP2JhC-W3fuDBsI-0" target="zP8EwtP2JhC-W3fuDBsI-3">
          <mxGeometry relative="1" as="geometry" />
        </mxCell>
        <mxCell id="zP8EwtP2JhC-W3fuDBsI-7" style="edgeStyle=orthogonalEdgeStyle;rounded=0;orthogonalLoop=1;jettySize=auto;html=1;entryX=0.5;entryY=1;entryDx=0;entryDy=0;" edge="1" parent="zP8EwtP2JhC-W3fuDBsI-23" source="zP8EwtP2JhC-W3fuDBsI-0" target="zP8EwtP2JhC-W3fuDBsI-5">
          <mxGeometry relative="1" as="geometry" />
        </mxCell>
        <mxCell id="zP8EwtP2JhC-W3fuDBsI-9" style="edgeStyle=orthogonalEdgeStyle;rounded=0;orthogonalLoop=1;jettySize=auto;html=1;" edge="1" parent="zP8EwtP2JhC-W3fuDBsI-23" source="zP8EwtP2JhC-W3fuDBsI-0" target="zP8EwtP2JhC-W3fuDBsI-4">
          <mxGeometry relative="1" as="geometry" />
        </mxCell>
        <mxCell id="zP8EwtP2JhC-W3fuDBsI-0" value="Dapartement&lt;div&gt;&lt;br&gt;&lt;/div&gt;" style="rounded=0;whiteSpace=wrap;html=1;fillColor=#ffe6cc;strokeColor=#d79b00;" vertex="1" parent="zP8EwtP2JhC-W3fuDBsI-23">
          <mxGeometry x="170" y="70" width="160" height="50" as="geometry" />
        </mxCell>
        <mxCell id="zP8EwtP2JhC-W3fuDBsI-1" value="Dapartement_Id" style="ellipse;whiteSpace=wrap;html=1;fillColor=#ffe6cc;strokeColor=#d79b00;" vertex="1" parent="zP8EwtP2JhC-W3fuDBsI-23">
          <mxGeometry y="30" width="120" height="30" as="geometry" />
        </mxCell>
        <mxCell id="zP8EwtP2JhC-W3fuDBsI-3" value="Description" style="ellipse;whiteSpace=wrap;html=1;fillColor=#ffe6cc;strokeColor=#d79b00;" vertex="1" parent="zP8EwtP2JhC-W3fuDBsI-23">
          <mxGeometry x="110" width="120" height="30" as="geometry" />
        </mxCell>
        <mxCell id="zP8EwtP2JhC-W3fuDBsI-4" value="Total_Staff" style="ellipse;whiteSpace=wrap;html=1;fillColor=#ffe6cc;strokeColor=#d79b00;" vertex="1" parent="zP8EwtP2JhC-W3fuDBsI-23">
          <mxGeometry x="350" y="30" width="120" height="30" as="geometry" />
        </mxCell>
        <mxCell id="zP8EwtP2JhC-W3fuDBsI-5" value="Dapartement_Name" style="ellipse;whiteSpace=wrap;html=1;fillColor=#ffe6cc;strokeColor=#d79b00;" vertex="1" parent="zP8EwtP2JhC-W3fuDBsI-23">
          <mxGeometry x="240" width="120" height="30" as="geometry" />
        </mxCell>
        <mxCell id="zP8EwtP2JhC-W3fuDBsI-41" value="" style="group" vertex="1" connectable="0" parent="WIyWlLk6GJQsqaUBKTNV-1">
          <mxGeometry x="50" y="400" width="600" height="110" as="geometry" />
        </mxCell>
        <mxCell id="zP8EwtP2JhC-W3fuDBsI-13" value="Employee&lt;div&gt;&lt;br&gt;&lt;/div&gt;" style="rounded=0;whiteSpace=wrap;html=1;fillColor=#dae8fc;strokeColor=#6c8ebf;" vertex="1" parent="zP8EwtP2JhC-W3fuDBsI-41">
          <mxGeometry x="220" y="30" width="160" height="50" as="geometry" />
        </mxCell>
        <mxCell id="zP8EwtP2JhC-W3fuDBsI-18" value="Employee_Id" style="ellipse;whiteSpace=wrap;html=1;fillColor=#dae8fc;strokeColor=#6c8ebf;" vertex="1" parent="zP8EwtP2JhC-W3fuDBsI-41">
          <mxGeometry x="42" width="120" height="30" as="geometry" />
        </mxCell>
        <mxCell id="zP8EwtP2JhC-W3fuDBsI-24" value="Employee_Name" style="ellipse;whiteSpace=wrap;html=1;fillColor=#dae8fc;strokeColor=#6c8ebf;" vertex="1" parent="zP8EwtP2JhC-W3fuDBsI-41">
          <mxGeometry y="40" width="120" height="30" as="geometry" />
        </mxCell>
        <mxCell id="zP8EwtP2JhC-W3fuDBsI-25" value="Email" style="ellipse;whiteSpace=wrap;html=1;fillColor=#dae8fc;strokeColor=#6c8ebf;" vertex="1" parent="zP8EwtP2JhC-W3fuDBsI-41">
          <mxGeometry x="42" y="80" width="118" height="30" as="geometry" />
        </mxCell>
        <mxCell id="zP8EwtP2JhC-W3fuDBsI-26" value="Gender" style="ellipse;whiteSpace=wrap;html=1;fillColor=#dae8fc;strokeColor=#6c8ebf;" vertex="1" parent="zP8EwtP2JhC-W3fuDBsI-41">
          <mxGeometry x="480" y="80" width="120" height="30" as="geometry" />
        </mxCell>
        <mxCell id="zP8EwtP2JhC-W3fuDBsI-32" value="Age" style="ellipse;whiteSpace=wrap;html=1;fillColor=#dae8fc;strokeColor=#6c8ebf;" vertex="1" parent="zP8EwtP2JhC-W3fuDBsI-41">
          <mxGeometry x="480" y="40" width="120" height="30" as="geometry" />
        </mxCell>
        <mxCell id="zP8EwtP2JhC-W3fuDBsI-35" value="Nationality" style="ellipse;whiteSpace=wrap;html=1;fillColor=#dae8fc;strokeColor=#6c8ebf;" vertex="1" parent="zP8EwtP2JhC-W3fuDBsI-41">
          <mxGeometry x="480" width="120" height="30" as="geometry" />
        </mxCell>
        <mxCell id="zP8EwtP2JhC-W3fuDBsI-28" style="edgeStyle=orthogonalEdgeStyle;rounded=0;orthogonalLoop=1;jettySize=auto;html=1;entryX=1;entryY=0.5;entryDx=0;entryDy=0;" edge="1" parent="zP8EwtP2JhC-W3fuDBsI-41" source="zP8EwtP2JhC-W3fuDBsI-13" target="zP8EwtP2JhC-W3fuDBsI-18">
          <mxGeometry relative="1" as="geometry" />
        </mxCell>
        <mxCell id="zP8EwtP2JhC-W3fuDBsI-29" style="edgeStyle=orthogonalEdgeStyle;rounded=0;orthogonalLoop=1;jettySize=auto;html=1;" edge="1" parent="zP8EwtP2JhC-W3fuDBsI-41" source="zP8EwtP2JhC-W3fuDBsI-13" target="zP8EwtP2JhC-W3fuDBsI-24">
          <mxGeometry relative="1" as="geometry" />
        </mxCell>
        <mxCell id="zP8EwtP2JhC-W3fuDBsI-30" style="edgeStyle=orthogonalEdgeStyle;rounded=0;orthogonalLoop=1;jettySize=auto;html=1;" edge="1" parent="zP8EwtP2JhC-W3fuDBsI-41" source="zP8EwtP2JhC-W3fuDBsI-13" target="zP8EwtP2JhC-W3fuDBsI-25">
          <mxGeometry relative="1" as="geometry" />
        </mxCell>
        <mxCell id="zP8EwtP2JhC-W3fuDBsI-34" style="edgeStyle=orthogonalEdgeStyle;rounded=0;orthogonalLoop=1;jettySize=auto;html=1;entryX=0;entryY=0.5;entryDx=0;entryDy=0;" edge="1" parent="zP8EwtP2JhC-W3fuDBsI-41" source="zP8EwtP2JhC-W3fuDBsI-13" target="zP8EwtP2JhC-W3fuDBsI-26">
          <mxGeometry relative="1" as="geometry" />
        </mxCell>
        <mxCell id="zP8EwtP2JhC-W3fuDBsI-33" style="edgeStyle=orthogonalEdgeStyle;rounded=0;orthogonalLoop=1;jettySize=auto;html=1;" edge="1" parent="zP8EwtP2JhC-W3fuDBsI-41" source="zP8EwtP2JhC-W3fuDBsI-13" target="zP8EwtP2JhC-W3fuDBsI-32">
          <mxGeometry relative="1" as="geometry" />
        </mxCell>
        <mxCell id="zP8EwtP2JhC-W3fuDBsI-39" style="edgeStyle=orthogonalEdgeStyle;rounded=0;orthogonalLoop=1;jettySize=auto;html=1;entryX=0;entryY=0.5;entryDx=0;entryDy=0;" edge="1" parent="zP8EwtP2JhC-W3fuDBsI-41" source="zP8EwtP2JhC-W3fuDBsI-13" target="zP8EwtP2JhC-W3fuDBsI-35">
          <mxGeometry relative="1" as="geometry" />
        </mxCell>
        <mxCell id="zP8EwtP2JhC-W3fuDBsI-11" value="1" style="edgeStyle=orthogonalEdgeStyle;rounded=0;orthogonalLoop=1;jettySize=auto;html=1;fontSize=15;" edge="1" parent="WIyWlLk6GJQsqaUBKTNV-1" source="zP8EwtP2JhC-W3fuDBsI-0" target="zP8EwtP2JhC-W3fuDBsI-10">
          <mxGeometry relative="1" as="geometry" />
        </mxCell>
        <mxCell id="zP8EwtP2JhC-W3fuDBsI-14" value="N" style="edgeStyle=orthogonalEdgeStyle;rounded=0;orthogonalLoop=1;jettySize=auto;html=1;" edge="1" parent="WIyWlLk6GJQsqaUBKTNV-1" source="zP8EwtP2JhC-W3fuDBsI-10" target="zP8EwtP2JhC-W3fuDBsI-13">
          <mxGeometry relative="1" as="geometry" />
        </mxCell>
      </root>
    </mxGraphModel>
  </diagram>
</mxfile>
